# xmcd
#
# Track frame offsets:
#	150
#	20471
#	38008
#	53457
#	73044
#	88226
#	104609
#	123404
#	141929
#	162413
#	176723
#	198206
#
# Disc length: 2869
#
# Revision: 2
# Processed by: cddbd v1.5.1PL0 Copyright (c) Steve Scherf et al.
# Submitted via: VisiTrax 2.9.10.220 - For more info visit www.synapsa.com
# Normalized: r1:DSETVAR1
#
DISCID=a50b330c
DTITLE=Various Artist - Today's Country Hits - Disc 4
DYEAR=2002
DGENRE=Country
TTITLE0=Alan Jackson - Little Man
TTITLE1=Brooks And Dunn - The Long Goodbye
TTITLE2=Cyndi Thompson - What I Really Meant
TTITLE3=Garth Brooks - I've Got Friends In Low Places
TTITLE4=George Straight - All My Ex's Live In Texas
TTITLE5=Jo Dee Messina - Lessons In Leavin'
TTITLE6=Lonestar - Not A Day Goes By
TTITLE7=Rascal Flatts - I'm Movin' On
TTITLE8=Steve Warner - Two Teardrops
TTITLE9=Terry Clark - A Little Gasoline
TTITLE10=Trace Adkins - I'm Tryin'
TTITLE11=Travis Tritt - If I Lost You
EXTD=
EXTT0=
EXTT1=
EXTT2=
EXTT3=
EXTT4=
EXTT5=
EXTT6=
EXTT7=
EXTT8=
EXTT9=
EXTT10=
EXTT11=
PLAYORDER=
